<?xml version="1.0" standalone="no"?>
<!DOCTYPE svg PUBLIC "-//W3C//DTD SVG 20010904//EN"
 "http://www.w3.org/TR/2001/REC-SVG-20010904/DTD/svg10.dtd">
<svg version="1.0" xmlns="http://www.w3.org/2000/svg"
 width="512.000000pt" height="512.000000pt" viewBox="0 0 512.000000 512.000000"
 preserveAspectRatio="xMidYMid meet">
<metadata>
Created by potrace 1.14, written by Peter Selinger 2001-2017
</metadata>
<g transform="translate(0.000000,512.000000) scale(0.100000,-0.100000)"
fill="#000000" stroke="none">
<path d="M2553 3443 l-123 -36 0 -868 0 -869 135 0 135 0 0 38 c1 20 2 427 3
905 2 765 0 867 -13 866 -8 0 -70 -17 -137 -36z"/>
<path d="M1285 3458 c-149 -15 -258 -62 -346 -150 -143 -144 -172 -375 -67
-541 31 -48 122 -137 141 -137 5 0 -19 -18 -54 -41 -145 -91 -214 -210 -223
-382 -14 -242 131 -449 372 -533 288 -100 613 -5 766 224 49 73 67 138 73 259
5 88 2 112 -17 173 -35 108 -128 217 -233 271 l-38 20 38 25 c49 33 109 98
135 149 33 63 45 124 42 215 -2 88 -18 145 -58 215 -95 160 -310 255 -531 233z
m158 -224 c124 -42 187 -178 147 -319 -19 -68 -98 -148 -166 -168 -170 -49
-331 59 -340 228 -5 106 25 176 96 227 67 49 176 62 263 32z m47 -762 c67 -29
125 -85 156 -149 39 -79 40 -193 2 -273 -51 -108 -144 -168 -278 -177 -150
-11 -271 51 -330 167 -21 41 -39 133 -33 171 2 13 5 35 7 49 13 91 109 192
211 224 68 22 204 15 265 -12z"/>
<path d="M3788 3465 c-2 -1 -32 -5 -68 -8 -104 -10 -131 -17 -218 -59 -73 -35
-169 -123 -201 -185 -72 -142 -69 -329 8 -443 37 -56 108 -128 133 -136 15 -5
8 -12 -39 -40 -80 -48 -148 -120 -183 -196 -37 -78 -44 -119 -43 -233 2 -310
257 -529 613 -528 276 2 497 145 576 373 26 76 27 252 1 329 -33 98 -108 186
-210 248 l-58 35 51 36 c99 73 160 187 165 309 10 259 -158 445 -442 487 -46
7 -84 12 -85 11z m94 -230 c51 -18 109 -68 134 -117 26 -49 30 -158 9 -213
-25 -66 -90 -131 -153 -153 -162 -58 -326 39 -348 206 -17 134 39 232 161 278
44 17 145 16 197 -1z m49 -764 c112 -53 178 -149 183 -262 5 -110 -29 -196
-101 -259 -106 -94 -306 -105 -433 -25 -139 87 -178 308 -79 443 43 59 117
107 194 126 11 3 58 4 105 2 63 -2 97 -8 131 -25z"/>
</g>
</svg>
